# The Great Editor v0.0.1
mtllib floor_1.mtl
o floor_1
v -18.184352803856616 1.0636358591451918 0
v -18.184352803856616 1.0636358591451918 -0.1
v 15.12908051394447 1.0636358591451918 0
v 15.12908051394447 1.0636358591451918 -0.1
v 15.125313934693324 -32.293343726937 0
v 15.125313934693324 -32.293343726937 -0.1
v -18.383251249006445 -32.293343726937 0
v -18.383251249006445 -32.293343726937 -0.1
v -18.28401341608338 -17.933990587101835 0
v -18.28401341608338 -17.933990587101835 -0.1
v -16.198404676448536 -16.974973388381347 0
v -16.198404676448536 -16.974973388381347 -0.1
v -14.804347574220625 -16.730914426699915 0
v -14.804347574220625 -16.730914426699915 -0.1
v -12.77662116471054 -16.529902085031583 0
v -12.77662116471054 -16.529902085031583 -0.1
v -8.960538300548953 -16.572948705044688 0
v -8.960538300548953 -16.572948705044688 -0.1
v -5.3657611846333 -16.384850349380287 0
v -5.3657611846333 -16.384850349380287 -0.1
v -1.2337853116434125 -16.326353067541053 0
v -1.2337853116434125 -16.326353067541053 -0.1
v 1.2977787244307488 -16.27915552345526 0
v 1.2977787244307488 -16.27915552345526 -0.1
v 1.289707483178292 -13.472477464118784 0
v 1.289707483178292 -13.472477464118784 -0.1
v -1.3677294819520414 -13.459140698811153 0
v -1.3677294819520414 -13.459140698811153 -0.1
v -5.461424610715991 -13.459140698811153 0
v -5.461424610715991 -13.459140698811153 -0.1
v -9.21078521385727 -13.420168133906433 0
v -9.21078521385727 -13.420168133906433 -0.1
v -12.921903507254765 -13.166615855132823 0
v -12.921903507254765 -13.166615855132823 -0.1
v -15.064433714960508 -12.815516860650952 0
v -15.064433714960508 -12.815516860650952 -0.1
v -16.88169290019224 -12.28888758616922 0
v -16.88169290019224 -12.28888758616922 -0.1
v -18.163367576600226 -11.450208751074648 0
v -18.163367576600226 -11.450208751074648 -0.1
v 9.73619296692973 -28.048640919617362 0
v 9.73619296692973 -28.048640919617362 -0.1
v 9.73619296692973 -30.44864091961736 0
v 9.73619296692973 -30.44864091961736 -0.1
v 7.6361929669297295 -30.44864091961736 0
v 7.6361929669297295 -30.44864091961736 -0.1
v 7.468558519810906 -30.44864091961736 0
v 7.468558519810906 -30.44864091961736 -0.1
v 5.3685585198109065 -30.44864091961736 0
v 5.3685585198109065 -30.44864091961736 -0.1
v 5.3685585198109065 -28.048640919617362 0
v 5.3685585198109065 -28.048640919617362 -0.1
v 7.6361929669297295 -28.048640919617362 0
v 7.6361929669297295 -28.048640919617362 -0.1
v 7.468558519810906 -28.048640919617362 0
v 7.468558519810906 -28.048640919617362 -0.1
vt -18.184352803856616 1.0636358591451918 0
vt 15.12908051394447 1.0636358591451918 0
vt 15.125313934693324 -32.293343726937 0
vt -18.383251249006445 -32.293343726937 0
vt -18.28401341608338 -17.933990587101835 0
vt -16.198404676448536 -16.974973388381347 0
vt -14.804347574220625 -16.730914426699915 0
vt -12.77662116471054 -16.529902085031583 0
vt -8.960538300548953 -16.572948705044688 0
vt -5.3657611846333 -16.384850349380287 0
vt -1.2337853116434125 -16.326353067541053 0
vt 1.2977787244307488 -16.27915552345526 0
vt 1.289707483178292 -13.472477464118784 0
vt -1.3677294819520414 -13.459140698811153 0
vt -5.461424610715991 -13.459140698811153 0
vt -9.21078521385727 -13.420168133906433 0
vt -12.921903507254765 -13.166615855132823 0
vt -15.064433714960508 -12.815516860650952 0
vt -16.88169290019224 -12.28888758616922 0
vt -18.163367576600226 -11.450208751074648 0
vt 9.73619296692973 -28.048640919617362 0
vt 9.73619296692973 -30.44864091961736 0
vt 7.6361929669297295 -30.44864091961736 0
vt 7.468558519810906 -30.44864091961736 0
vt 5.3685585198109065 -30.44864091961736 0
vt 5.3685585198109065 -28.048640919617362 0
vt 7.6361929669297295 -28.048640919617362 0
vt 7.468558519810906 -28.048640919617362 0
vn 0 0 1
vn 0 0 -1
usemtl floor_1
s off
f 39/20/1 35/18/1 1/1/1
f 2/1/2 36/18/2 40/20/2
f 35/18/1 33/17/1 1/1/1
f 2/1/2 34/17/2 36/18/2
f 33/17/1 31/16/1 1/1/1
f 2/1/2 32/16/2 34/17/2
f 31/16/1 29/15/1 1/1/1
f 2/1/2 30/15/2 32/16/2
f 29/15/1 27/14/1 1/1/1
f 2/1/2 28/14/2 30/15/2
f 27/14/1 3/2/1 1/1/1
f 2/1/2 4/2/2 28/14/2
f 27/14/1 25/13/1 3/2/1
f 4/2/2 26/13/2 28/14/2
f 25/13/1 41/21/1 3/2/1
f 4/2/2 42/21/2 26/13/2
f 41/21/1 5/3/1 3/2/1
f 4/2/2 6/3/2 42/21/2
f 41/21/1 43/22/1 5/3/1
f 6/3/2 44/22/2 42/21/2
f 43/22/1 45/23/1 5/3/1
f 6/3/2 46/23/2 44/22/2
f 45/23/1 47/24/1 5/3/1
f 6/3/2 48/24/2 46/23/2
f 47/24/1 49/25/1 5/3/1
f 6/3/2 50/25/2 48/24/2
f 49/25/1 7/4/1 5/3/1
f 6/3/2 8/4/2 50/25/2
f 49/25/1 51/26/1 7/4/1
f 8/4/2 52/26/2 50/25/2
f 51/26/1 17/9/1 7/4/1
f 8/4/2 18/9/2 52/26/2
f 17/9/1 15/8/1 7/4/1
f 8/4/2 16/8/2 18/9/2
f 15/8/1 13/7/1 7/4/1
f 8/4/2 14/7/2 16/8/2
f 13/7/1 9/5/1 7/4/1
f 8/4/2 10/5/2 14/7/2
f 13/7/1 11/6/1 9/5/1
f 10/5/2 12/6/2 14/7/2
f 37/19/1 35/18/1 39/20/1
f 40/20/2 36/18/2 38/19/2
f 23/12/1 41/21/1 25/13/1
f 26/13/2 42/21/2 24/12/2
f 23/12/1 53/27/1 41/21/1
f 42/21/2 54/27/2 24/12/2
f 53/27/1 55/28/1 45/23/1
f 46/23/2 56/28/2 54/27/2
f 55/28/1 47/24/1 45/23/1
f 46/23/2 48/24/2 56/28/2
f 55/28/1 23/12/1 51/26/1
f 52/26/2 24/12/2 56/28/2
f 23/12/1 21/11/1 51/26/1
f 52/26/2 22/11/2 24/12/2
f 21/11/1 19/10/1 51/26/1
f 52/26/2 20/10/2 22/11/2
f 19/10/1 17/9/1 51/26/1
f 52/26/2 18/9/2 20/10/2
f 55/28/1 53/27/1 23/12/1
f 24/12/2 54/27/2 56/28/2
